<?xml version="1.0" encoding="UTF-8"?>
<!DOCTYPE svg PUBLIC "-//W3C//DTD SVG 1.1//EN" "http://www.w3.org/Graphics/SVG/1.1/DTD/svg11.dtd">
<svg xmlns="http://www.w3.org/2000/svg" version="1.1" width="364px" height="490px" style="shape-rendering:geometricPrecision; text-rendering:geometricPrecision; image-rendering:optimizeQuality; fill-rule:evenodd; clip-rule:evenodd" xmlns:xlink="http://www.w3.org/1999/xlink">
<g><path style="opacity:1" fill="#fefefe" d="M -0.5,-0.5 C 120.833,-0.5 242.167,-0.5 363.5,-0.5C 363.5,162.833 363.5,326.167 363.5,489.5C 242.167,489.5 120.833,489.5 -0.5,489.5C -0.5,326.167 -0.5,162.833 -0.5,-0.5 Z"/></g>
<g><path style="opacity:1" fill="#f7cd2a" d="M 327.5,318.5 C 315.135,386.032 275.135,426.198 207.5,439C 153.613,447.59 107.113,433.09 68,395.5C 49.3388,374.377 38.5055,349.71 35.5,321.5C 35.5,230.5 35.5,139.5 35.5,48.5C 132.833,48.5 230.167,48.5 327.5,48.5C 327.5,138.5 327.5,228.5 327.5,318.5 Z"/></g>
<g><path style="opacity:1" fill="#f9e798" d="M 327.5,318.5 C 327.5,228.5 327.5,138.5 327.5,48.5C 230.167,48.5 132.833,48.5 35.5,48.5C 35.5,139.5 35.5,230.5 35.5,321.5C 34.5006,230.335 34.1673,139.002 34.5,47.5C 132.5,47.5 230.5,47.5 328.5,47.5C 328.833,138.002 328.499,228.335 327.5,318.5 Z"/></g>
<g><path style="opacity:1" fill="#ee792e" d="M 256.5,84.5 C 256.328,83.5084 256.662,82.8417 257.5,82.5C 277.326,83.4971 297.326,83.8305 317.5,83.5C 317.5,74.8333 317.5,66.1667 317.5,57.5C 226.833,57.5 136.167,57.5 45.5,57.5C 45.5,66.1667 45.5,74.8333 45.5,83.5C 60.1667,83.5 74.8333,83.5 89.5,83.5C 89.5,84.1667 89.1667,84.5 88.5,84.5C 73.8333,84.5 59.1667,84.5 44.5,84.5C 44.5,75.1667 44.5,65.8333 44.5,56.5C 135.833,56.5 227.167,56.5 318.5,56.5C 318.5,65.8333 318.5,75.1667 318.5,84.5C 297.833,84.5 277.167,84.5 256.5,84.5 Z"/></g>
<g><path style="opacity:1" fill="#eb3336" d="M 257.5,82.5 C 261.71,73.2874 268.377,71.1208 277.5,76C 279.07,77.3968 280.404,78.8968 281.5,80.5C 283.948,81.4731 286.615,81.8064 289.5,81.5C 289.819,76.6367 289.486,71.97 288.5,67.5C 285.428,67.1875 282.595,67.8542 280,69.5C 265.517,63.5332 253.85,66.8666 245,79.5C 244.506,81.1341 244.34,82.8008 244.5,84.5C 238.833,84.5 233.167,84.5 227.5,84.5C 227.5,84.1667 227.5,83.8333 227.5,83.5C 224.038,82.5184 220.371,82.185 216.5,82.5C 216.5,79.8333 216.5,77.1667 216.5,74.5C 220.833,74.5 225.167,74.5 229.5,74.5C 229.5,76.5 229.5,78.5 229.5,80.5C 232.713,80.81 235.713,80.4767 238.5,79.5C 238.5,75.5 238.5,71.5 238.5,67.5C 225.167,67.5 211.833,67.5 198.5,67.5C 198.5,69.8333 198.5,72.1667 198.5,74.5C 200.167,74.5 201.833,74.5 203.5,74.5C 203.5,77.5 203.5,80.5 203.5,83.5C 198.833,83.5 194.167,83.5 189.5,83.5C 193.41,74.9861 190.743,69.9861 181.5,68.5C 172.014,67.5062 162.348,67.1729 152.5,67.5C 152.5,69.5 152.5,71.5 152.5,73.5C 153.919,74.4511 155.585,74.7845 157.5,74.5C 157.5,77.5 157.5,80.5 157.5,83.5C 147.319,83.8274 137.319,83.494 127.5,82.5C 131.314,79.8479 132.481,76.1813 131,71.5C 123.864,64.6039 117.197,64.9372 111,72.5C 109.53,77.1898 111.03,80.5232 115.5,82.5C 111.5,83.8333 107.5,83.8333 103.5,82.5C 105.283,72.1069 100.783,67.1069 90,67.5C 81.0692,67.2645 76.5692,71.5978 76.5,80.5C 79.1667,80.5 81.8333,80.5 84.5,80.5C 84.7891,73.3683 87.9558,71.7017 94,75.5C 94.5059,79.1889 93.0059,81.8556 89.5,83.5C 74.8333,83.5 60.1667,83.5 45.5,83.5C 45.5,74.8333 45.5,66.1667 45.5,57.5C 136.167,57.5 226.833,57.5 317.5,57.5C 317.5,66.1667 317.5,74.8333 317.5,83.5C 297.326,83.8305 277.326,83.4971 257.5,82.5 Z"/></g>
<g><path style="opacity:1" fill="#fbfaf4" d="M 103.5,82.5 C 102.833,82.5 102.5,82.8333 102.5,83.5C 100.46,85.177 98.4602,86.8437 96.5,88.5C 95.5084,88.3284 94.8417,88.6618 94.5,89.5C 90.5644,91.7657 87.2311,94.7657 84.5,98.5C 88.7828,99.4922 93.1161,99.8256 97.5,99.5C 97.5,97.8333 97.5,96.1667 97.5,94.5C 99.8333,94.5 102.167,94.5 104.5,94.5C 104.5,98.1667 104.5,101.833 104.5,105.5C 94.8333,105.5 85.1667,105.5 75.5,105.5C 75.0154,98.9697 77.3488,93.6363 82.5,89.5C 83.1667,89.5 83.5,89.1667 83.5,88.5C 85.754,87.8763 87.4206,86.543 88.5,84.5C 89.1667,84.5 89.5,84.1667 89.5,83.5C 93.0059,81.8556 94.5059,79.1889 94,75.5C 87.9558,71.7017 84.7891,73.3683 84.5,80.5C 81.8333,80.5 79.1667,80.5 76.5,80.5C 76.5692,71.5978 81.0692,67.2645 90,67.5C 100.783,67.1069 105.283,72.1069 103.5,82.5 Z"/></g>
<g><path style="opacity:1" fill="#fcf4eb" d="M 127.5,82.5 C 123.468,83.7663 119.468,83.7663 115.5,82.5C 111.03,80.5232 109.53,77.1898 111,72.5C 117.197,64.9372 123.864,64.6039 131,71.5C 132.481,76.1813 131.314,79.8479 127.5,82.5 Z"/></g>
<g><path style="opacity:1" fill="#f5e2ba" d="M 181.5,68.5 C 172.167,68.5 162.833,68.5 153.5,68.5C 153.5,70.1667 153.5,71.8333 153.5,73.5C 153.167,73.5 152.833,73.5 152.5,73.5C 152.5,71.5 152.5,69.5 152.5,67.5C 162.348,67.1729 172.014,67.5062 181.5,68.5 Z"/></g>
<g><path style="opacity:1" fill="#f7e4bd" d="M 238.5,79.5 C 238.167,79.5 237.833,79.5 237.5,79.5C 237.5,75.8333 237.5,72.1667 237.5,68.5C 224.833,68.5 212.167,68.5 199.5,68.5C 199.5,70.1667 199.5,71.8333 199.5,73.5C 201.415,73.2155 203.081,73.5489 204.5,74.5C 204.167,74.5 203.833,74.5 203.5,74.5C 201.833,74.5 200.167,74.5 198.5,74.5C 198.5,72.1667 198.5,69.8333 198.5,67.5C 211.833,67.5 225.167,67.5 238.5,67.5C 238.5,71.5 238.5,75.5 238.5,79.5 Z"/></g>
<g><path style="opacity:1" fill="#f7f8f2" d="M 288.5,67.5 C 288.5,71.8333 288.5,76.1667 288.5,80.5C 286.167,80.5 283.833,80.5 281.5,80.5C 280.404,78.8968 279.07,77.3968 277.5,76C 268.377,71.1208 261.71,73.2874 257.5,82.5C 256.662,82.8417 256.328,83.5084 256.5,84.5C 256.5,85.8333 256.5,87.1667 256.5,88.5C 256.5,89.1667 256.833,89.5 257.5,89.5C 258.439,95.7683 262.106,98.7683 268.5,98.5C 275.325,98.9981 279.658,95.9981 281.5,89.5C 282.167,89.5 282.833,89.5 283.5,89.5C 285.762,90.8234 288.096,92.1568 290.5,93.5C 285.739,102.72 278.072,107.053 267.5,106.5C 254.923,107.234 247.256,101.567 244.5,89.5C 238.833,89.5 233.167,89.5 227.5,89.5C 227.5,89.1667 227.5,88.8333 227.5,88.5C 233.167,88.5 238.833,88.5 244.5,88.5C 244.5,87.1667 244.5,85.8333 244.5,84.5C 244.34,82.8008 244.506,81.1341 245,79.5C 253.85,66.8666 265.517,63.5332 280,69.5C 282.595,67.8542 285.428,67.1875 288.5,67.5 Z"/></g>
<g><path style="opacity:1" fill="#fbfbf8" d="M 181.5,68.5 C 190.743,69.9861 193.41,74.9861 189.5,83.5C 189.167,83.5 188.833,83.5 188.5,83.5C 187.357,83.9081 186.357,84.5748 185.5,85.5C 187.319,86.3199 188.986,87.3199 190.5,88.5C 190.842,89.3382 191.508,89.6716 192.5,89.5C 194.691,96.6235 192.358,101.79 185.5,105C 174.505,105.5 163.505,105.667 152.5,105.5C 152.5,103.5 152.5,101.5 152.5,99.5C 154.5,99.5 156.5,99.5 158.5,99.5C 158.5,95.8333 158.5,92.1667 158.5,88.5C 158.5,87.1667 158.5,85.8333 158.5,84.5C 158.5,80.8333 158.5,77.1667 158.5,73.5C 156.833,73.5 155.167,73.5 153.5,73.5C 153.5,71.8333 153.5,70.1667 153.5,68.5C 162.833,68.5 172.167,68.5 181.5,68.5 Z"/></g>
<g><path style="opacity:1" fill="#fcfdf9" d="M 237.5,79.5 C 235.167,79.5 232.833,79.5 230.5,79.5C 230.5,77.5 230.5,75.5 230.5,73.5C 225.5,73.5 220.5,73.5 215.5,73.5C 215.5,76.8333 215.5,80.1667 215.5,83.5C 219.5,83.5 223.5,83.5 227.5,83.5C 227.5,83.8333 227.5,84.1667 227.5,84.5C 227.5,85.8333 227.5,87.1667 227.5,88.5C 227.5,88.8333 227.5,89.1667 227.5,89.5C 223.833,89.5 220.167,89.5 216.5,89.5C 215.521,92.6248 215.187,95.9581 215.5,99.5C 220.363,99.8195 225.03,99.4861 229.5,98.5C 229.5,96.8333 229.5,95.1667 229.5,93.5C 232.5,93.5 235.5,93.5 238.5,93.5C 238.5,97.5 238.5,101.5 238.5,105.5C 225.167,105.5 211.833,105.5 198.5,105.5C 198.5,103.5 198.5,101.5 198.5,99.5C 200.5,99.5 202.5,99.5 204.5,99.5C 204.5,95.8333 204.5,92.1667 204.5,88.5C 204.5,87.1667 204.5,85.8333 204.5,84.5C 204.5,81.1667 204.5,77.8333 204.5,74.5C 203.081,73.5489 201.415,73.2155 199.5,73.5C 199.5,71.8333 199.5,70.1667 199.5,68.5C 212.167,68.5 224.833,68.5 237.5,68.5C 237.5,72.1667 237.5,75.8333 237.5,79.5 Z"/></g>
<g><path style="opacity:1" fill="#f2956e" d="M 288.5,67.5 C 289.486,71.97 289.819,76.6367 289.5,81.5C 286.615,81.8064 283.948,81.4731 281.5,80.5C 283.833,80.5 286.167,80.5 288.5,80.5C 288.5,76.1667 288.5,71.8333 288.5,67.5 Z"/></g>
<g><path style="opacity:1" fill="#f2a67e" d="M 237.5,79.5 C 237.833,79.5 238.167,79.5 238.5,79.5C 235.713,80.4767 232.713,80.81 229.5,80.5C 229.5,78.5 229.5,76.5 229.5,74.5C 225.167,74.5 220.833,74.5 216.5,74.5C 216.5,77.1667 216.5,79.8333 216.5,82.5C 220.371,82.185 224.038,82.5184 227.5,83.5C 223.5,83.5 219.5,83.5 215.5,83.5C 215.5,80.1667 215.5,76.8333 215.5,73.5C 220.5,73.5 225.5,73.5 230.5,73.5C 230.5,75.5 230.5,77.5 230.5,79.5C 232.833,79.5 235.167,79.5 237.5,79.5 Z"/></g>
<g><path style="opacity:1" fill="#f39b73" d="M 152.5,73.5 C 152.833,73.5 153.167,73.5 153.5,73.5C 155.167,73.5 156.833,73.5 158.5,73.5C 158.5,77.1667 158.5,80.8333 158.5,84.5C 158.167,84.5 157.833,84.5 157.5,84.5C 157.5,84.1667 157.5,83.8333 157.5,83.5C 157.5,80.5 157.5,77.5 157.5,74.5C 155.585,74.7845 153.919,74.4511 152.5,73.5 Z"/></g>
<g><path style="opacity:1" fill="#ec4038" d="M 118.5,71.5 C 125.536,70.6026 127.203,73.1026 123.5,79C 117.593,79.7465 115.927,77.2465 118.5,71.5 Z"/></g>
<g><path style="opacity:1" fill="#f0946a" d="M 176.5,74.5 C 174.5,74.5 172.5,74.5 170.5,74.5C 170.5,77.1667 170.5,79.8333 170.5,82.5C 169.523,79.7131 169.19,76.7131 169.5,73.5C 172.059,73.1984 174.393,73.5318 176.5,74.5 Z"/></g>
<g><path style="opacity:1" fill="#ec3335" d="M 176.5,74.5 C 180.086,76.4916 180.42,78.9916 177.5,82C 175.19,82.4966 172.857,82.6633 170.5,82.5C 170.5,79.8333 170.5,77.1667 170.5,74.5C 172.5,74.5 174.5,74.5 176.5,74.5 Z"/></g>
<g><path style="opacity:1" fill="#ef6b30" d="M 103.5,82.5 C 107.5,83.8333 111.5,83.8333 115.5,82.5C 119.468,83.7663 123.468,83.7663 127.5,82.5C 137.319,83.494 147.319,83.8274 157.5,83.5C 157.5,83.8333 157.5,84.1667 157.5,84.5C 138.992,84.8302 120.659,84.4968 102.5,83.5C 102.5,82.8333 102.833,82.5 103.5,82.5 Z"/></g>
<g><path style="opacity:1" fill="#ef7139" d="M 203.5,74.5 C 203.833,74.5 204.167,74.5 204.5,74.5C 204.5,77.8333 204.5,81.1667 204.5,84.5C 198.974,84.8214 193.64,84.4881 188.5,83.5C 188.833,83.5 189.167,83.5 189.5,83.5C 194.167,83.5 198.833,83.5 203.5,83.5C 203.5,80.5 203.5,77.5 203.5,74.5 Z"/></g>
<g><path style="opacity:1" fill="#face28" d="M 102.5,83.5 C 120.659,84.4968 138.992,84.8302 157.5,84.5C 157.833,84.5 158.167,84.5 158.5,84.5C 158.5,85.8333 158.5,87.1667 158.5,88.5C 137.833,88.5 117.167,88.5 96.5,88.5C 98.4602,86.8437 100.46,85.177 102.5,83.5 Z"/></g>
<g><path style="opacity:1" fill="#f9cf2d" d="M 188.5,83.5 C 193.64,84.4881 198.974,84.8214 204.5,84.5C 204.5,85.8333 204.5,87.1667 204.5,88.5C 199.833,88.5 195.167,88.5 190.5,88.5C 188.986,87.3199 187.319,86.3199 185.5,85.5C 186.357,84.5748 187.357,83.9081 188.5,83.5 Z"/></g>
<g><path style="opacity:1" fill="#facf29" d="M 227.5,84.5 C 233.167,84.5 238.833,84.5 244.5,84.5C 244.5,85.8333 244.5,87.1667 244.5,88.5C 238.833,88.5 233.167,88.5 227.5,88.5C 227.5,87.1667 227.5,85.8333 227.5,84.5 Z"/></g>
<g><path style="opacity:1" fill="#81c190" d="M 94.5,89.5 C 94.8417,88.6618 95.5084,88.3284 96.5,88.5C 117.167,88.5 137.833,88.5 158.5,88.5C 158.5,92.1667 158.5,95.8333 158.5,99.5C 156.5,99.5 154.5,99.5 152.5,99.5C 153.919,98.5489 155.585,98.2155 157.5,98.5C 157.5,95.5 157.5,92.5 157.5,89.5C 136.5,89.5 115.5,89.5 94.5,89.5 Z"/></g>
<g><path style="opacity:1" fill="#7abd8d" d="M 256.5,88.5 C 277.167,88.5 297.833,88.5 318.5,88.5C 318.827,98.015 318.494,107.348 317.5,116.5C 317.5,107.5 317.5,98.5 317.5,89.5C 306.167,89.5 294.833,89.5 283.5,89.5C 282.833,89.5 282.167,89.5 281.5,89.5C 273.5,89.5 265.5,89.5 257.5,89.5C 256.833,89.5 256.5,89.1667 256.5,88.5 Z"/></g>
<g><path style="opacity:1" fill="#7bc2a7" d="M 190.5,88.5 C 195.167,88.5 199.833,88.5 204.5,88.5C 204.5,92.1667 204.5,95.8333 204.5,99.5C 202.5,99.5 200.5,99.5 198.5,99.5C 199.919,98.5489 201.585,98.2155 203.5,98.5C 203.5,95.5 203.5,92.5 203.5,89.5C 199.833,89.5 196.167,89.5 192.5,89.5C 191.508,89.6716 190.842,89.3382 190.5,88.5 Z"/></g>
<g><path style="opacity:1" fill="#18b0ed" d="M 82.5,89.5 C 77.3488,93.6363 75.0154,98.9697 75.5,105.5C 85.1667,105.5 94.8333,105.5 104.5,105.5C 104.5,101.833 104.5,98.1667 104.5,94.5C 102.167,94.5 99.8333,94.5 97.5,94.5C 97.5,96.1667 97.5,97.8333 97.5,99.5C 93.1161,99.8256 88.7828,99.4922 84.5,98.5C 87.2311,94.7657 90.5644,91.7657 94.5,89.5C 115.5,89.5 136.5,89.5 157.5,89.5C 157.5,92.5 157.5,95.5 157.5,98.5C 155.585,98.2155 153.919,98.5489 152.5,99.5C 152.5,101.5 152.5,103.5 152.5,105.5C 163.505,105.667 174.505,105.5 185.5,105C 192.358,101.79 194.691,96.6235 192.5,89.5C 196.167,89.5 199.833,89.5 203.5,89.5C 203.5,92.5 203.5,95.5 203.5,98.5C 201.585,98.2155 199.919,98.5489 198.5,99.5C 198.5,101.5 198.5,103.5 198.5,105.5C 211.833,105.5 225.167,105.5 238.5,105.5C 238.5,101.5 238.5,97.5 238.5,93.5C 235.5,93.5 232.5,93.5 229.5,93.5C 229.5,95.1667 229.5,96.8333 229.5,98.5C 225.167,98.5 220.833,98.5 216.5,98.5C 216.5,95.5 216.5,92.5 216.5,89.5C 220.167,89.5 223.833,89.5 227.5,89.5C 233.167,89.5 238.833,89.5 244.5,89.5C 247.256,101.567 254.923,107.234 267.5,106.5C 278.072,107.053 285.739,102.72 290.5,93.5C 288.096,92.1568 285.762,90.8234 283.5,89.5C 294.833,89.5 306.167,89.5 317.5,89.5C 317.5,98.5 317.5,107.5 317.5,116.5C 226.833,116.5 136.167,116.5 45.5,116.5C 45.5,107.5 45.5,98.5 45.5,89.5C 57.8333,89.5 70.1667,89.5 82.5,89.5 Z"/></g>
<g><path style="opacity:1" fill="#0faeee" d="M 257.5,89.5 C 265.5,89.5 273.5,89.5 281.5,89.5C 279.658,95.9981 275.325,98.9981 268.5,98.5C 262.106,98.7683 258.439,95.7683 257.5,89.5 Z"/></g>
<g><path style="opacity:1" fill="#6cc5be" d="M 170.5,89.5 C 170.5,92.5 170.5,95.5 170.5,98.5C 172.5,98.5 174.5,98.5 176.5,98.5C 174.393,99.4682 172.059,99.8016 169.5,99.5C 169.187,95.9581 169.521,92.6248 170.5,89.5 Z"/></g>
<g><path style="opacity:1" fill="#09aded" d="M 170.5,89.5 C 173.93,89.1065 177.096,89.7732 180,91.5C 180.667,93.5 180.667,95.5 180,97.5C 178.989,98.3366 177.822,98.67 176.5,98.5C 174.5,98.5 172.5,98.5 170.5,98.5C 170.5,95.5 170.5,92.5 170.5,89.5 Z"/></g>
<g><path style="opacity:1" fill="#77bd8f" d="M 83.5,88.5 C 83.5,89.1667 83.1667,89.5 82.5,89.5C 70.1667,89.5 57.8333,89.5 45.5,89.5C 45.5,98.5 45.5,107.5 45.5,116.5C 44.5064,107.348 44.1731,98.015 44.5,88.5C 57.5,88.5 70.5,88.5 83.5,88.5 Z"/></g>
<g><path style="opacity:1" fill="#6fc3bb" d="M 216.5,89.5 C 216.5,92.5 216.5,95.5 216.5,98.5C 220.833,98.5 225.167,98.5 229.5,98.5C 225.03,99.4861 220.363,99.8195 215.5,99.5C 215.187,95.9581 215.521,92.6248 216.5,89.5 Z"/></g>
<g><path style="opacity:1" fill="#04afef" d="M 45.5,125.5 C 136.167,125.5 226.833,125.5 317.5,125.5C 317.667,190.501 317.5,255.501 317,320.5C 306.029,377.804 272.196,413.304 215.5,427C 162.065,437.607 115.898,424.107 77,386.5C 59.9095,366.644 49.5762,343.644 46,317.5C 45.5,253.501 45.3333,189.501 45.5,125.5 Z"/></g>
<g><path style="opacity:1" fill="#e7d051" d="M 258.5,226.5 C 258.158,227.338 257.492,227.672 256.5,227.5C 256.5,227.167 256.5,226.833 256.5,226.5C 231.546,203.216 206.546,179.883 181.5,156.5C 156.813,179.522 132.146,202.522 107.5,225.5C 106.662,225.842 106.328,226.508 106.5,227.5C 105.508,227.672 104.842,227.338 104.5,226.5C 130.12,202.55 155.787,178.55 181.5,154.5C 207.213,178.55 232.88,202.55 258.5,226.5 Z"/></g>
<g><path style="opacity:1" fill="#fdfdf9" d="M 256.5,226.5 C 206.664,226.832 156.997,226.499 107.5,225.5C 132.146,202.522 156.813,179.522 181.5,156.5C 206.546,179.883 231.546,203.216 256.5,226.5 Z"/></g>
<g><path style="opacity:1" fill="#03aef0" d="M 176.5,170.5 C 176.829,184.01 176.496,197.344 175.5,210.5C 172.167,206.5 168.5,202.833 164.5,199.5C 161.833,195.833 159.167,192.167 156.5,188.5C 158.404,188.262 159.738,187.262 160.5,185.5C 165.833,180.5 171.167,175.5 176.5,170.5 Z"/></g>
<g><path style="opacity:1" fill="#b5c66b" d="M 177.5,167.5 C 177.5,168.167 177.5,168.833 177.5,169.5C 176.833,169.5 176.5,169.833 176.5,170.5C 171.167,175.5 165.833,180.5 160.5,185.5C 165.441,178.89 171.108,172.89 177.5,167.5 Z"/></g>
<g><path style="opacity:1" fill="#09aeee" d="M 187.5,170.5 C 194.452,176.785 201.119,183.452 207.5,190.5C 204.737,193.252 202.403,196.252 200.5,199.5C 195.77,203.227 191.77,207.56 188.5,212.5C 188.167,212.5 187.833,212.5 187.5,212.5C 186.167,198.5 186.167,184.5 187.5,170.5 Z"/></g>
<g><path style="opacity:1" fill="#70c5b6" d="M 185.5,169.5 C 186.167,169.5 186.833,169.5 187.5,169.5C 187.5,169.833 187.5,170.167 187.5,170.5C 186.167,184.5 186.167,198.5 187.5,212.5C 187.44,213.043 187.107,213.376 186.5,213.5C 185.501,198.848 185.167,184.182 185.5,169.5 Z"/></g>
<g><path style="opacity:1" fill="#f0efc1" d="M 177.5,167.5 C 178.827,183.005 178.827,198.672 177.5,214.5C 176.575,213.643 175.908,212.643 175.5,211.5C 177.482,197.873 178.149,183.873 177.5,169.5C 177.5,168.833 177.5,168.167 177.5,167.5 Z"/></g>
<g><path style="opacity:1" fill="#32b3c7" d="M 177.5,169.5 C 178.149,183.873 177.482,197.873 175.5,211.5C 175.5,211.167 175.5,210.833 175.5,210.5C 176.496,197.344 176.829,184.01 176.5,170.5C 176.5,169.833 176.833,169.5 177.5,169.5 Z"/></g>
<g><path style="opacity:1" fill="#dfd672" d="M 187.5,169.5 C 195.398,175.727 202.731,182.727 209.5,190.5C 206.812,193.854 203.812,196.854 200.5,199.5C 202.403,196.252 204.737,193.252 207.5,190.5C 201.119,183.452 194.452,176.785 187.5,170.5C 187.5,170.167 187.5,169.833 187.5,169.5 Z"/></g>
<g><path style="opacity:1" fill="#fefcdb" d="M 185.5,169.5 C 185.167,184.182 185.501,198.848 186.5,213.5C 187.107,213.376 187.44,213.043 187.5,212.5C 187.833,212.5 188.167,212.5 188.5,212.5C 187.934,214.078 186.934,215.412 185.5,216.5C 184.173,200.672 184.173,185.005 185.5,169.5 Z"/></g>
<g><path style="opacity:1" fill="#cece64" d="M 156.5,188.5 C 159.167,192.167 161.833,195.833 164.5,199.5C 161.536,197.038 158.703,194.371 156,191.5C 155.26,190.251 155.427,189.251 156.5,188.5 Z"/></g>
<g><path style="opacity:1" fill="#c8cb65" d="M 223.5,204.5 C 220.269,202.78 217.436,200.447 215,197.5C 211.964,200.704 208.797,203.704 205.5,206.5C 208.06,202.43 211.227,198.764 215,195.5C 218.038,198.369 220.871,201.369 223.5,204.5 Z"/></g>
<g><path style="opacity:1" fill="#d5d26a" d="M 150.5,196.5 C 154.234,199.231 157.234,202.564 159.5,206.5C 155.766,203.769 152.766,200.436 150.5,196.5 Z"/></g>
<g><path style="opacity:1" fill="#04aef0" d="M 150.5,196.5 C 152.766,200.436 155.766,203.769 159.5,206.5C 159.833,207.5 160.5,208.167 161.5,208.5C 164.768,213.107 168.435,217.441 172.5,221.5C 156.325,221.83 140.325,221.496 124.5,220.5C 126.167,219.5 127.5,218.167 128.5,216.5C 135.554,209.442 142.888,202.775 150.5,196.5 Z"/></g>
<g><path style="opacity:1" fill="#ddd570" d="M 164.5,199.5 C 168.5,202.833 172.167,206.5 175.5,210.5C 175.5,210.833 175.5,211.167 175.5,211.5C 171.102,208.105 167.436,204.105 164.5,199.5 Z"/></g>
<g><path style="opacity:1" fill="#07aeef" d="M 223.5,204.5 C 228.5,210.167 233.833,215.5 239.5,220.5C 224.167,221.833 208.833,221.833 193.5,220.5C 193.833,219.833 194.167,219.167 194.5,218.5C 198.167,215.5 201.5,212.167 204.5,208.5C 205.338,208.158 205.672,207.492 205.5,206.5C 208.797,203.704 211.964,200.704 215,197.5C 217.436,200.447 220.269,202.78 223.5,204.5 Z"/></g>
<g><path style="opacity:1" fill="#eddb72" d="M 223.5,204.5 C 229.776,209.107 235.443,214.441 240.5,220.5C 240.167,220.5 239.833,220.5 239.5,220.5C 233.833,215.5 228.5,210.167 223.5,204.5 Z"/></g>
<g><path style="opacity:1" fill="#e5d872" d="M 200.5,199.5 C 197.23,204.44 193.23,208.773 188.5,212.5C 191.77,207.56 195.77,203.227 200.5,199.5 Z"/></g>
<g><path style="opacity:1" fill="#b3c56c" d="M 150.5,196.5 C 142.888,202.775 135.554,209.442 128.5,216.5C 134.238,209.256 140.572,202.423 147.5,196C 148.749,195.26 149.749,195.427 150.5,196.5 Z"/></g>
<g><path style="opacity:1" fill="#cdcd64" d="M 204.5,208.5 C 201.5,212.167 198.167,215.5 194.5,218.5C 196.833,214.167 200.167,210.833 204.5,208.5 Z"/></g>
<g><path style="opacity:1" fill="#f4d960" d="M 161.5,208.5 C 166.614,212.783 171.281,217.616 175.5,223C 157.158,223.833 138.824,223.666 120.5,222.5C 121.357,221.575 122.357,220.908 123.5,220.5C 131.305,221.831 139.472,222.498 148,222.5C 156.34,222.5 164.507,222.166 172.5,221.5C 168.435,217.441 164.768,213.107 161.5,208.5 Z"/></g>
<g><path style="opacity:1" fill="#95bf6e" d="M 123.5,220.5 C 123.833,220.5 124.167,220.5 124.5,220.5C 140.325,221.496 156.325,221.83 172.5,221.5C 164.507,222.166 156.34,222.5 148,222.5C 139.472,222.498 131.305,221.831 123.5,220.5 Z"/></g>
<g><path style="opacity:1" fill="#fddb5b" d="M 192.5,220.5 C 200.138,221.831 208.138,222.498 216.5,222.5C 224.862,222.498 232.862,221.831 240.5,220.5C 241.627,221.122 242.627,221.955 243.5,223C 225.5,223.667 207.5,223.667 189.5,223C 190.373,221.955 191.373,221.122 192.5,220.5 Z"/></g>
<g><path style="opacity:1" fill="#95bf6d" d="M 192.5,220.5 C 192.833,220.5 193.167,220.5 193.5,220.5C 208.833,221.833 224.167,221.833 239.5,220.5C 239.833,220.5 240.167,220.5 240.5,220.5C 232.862,221.831 224.862,222.498 216.5,222.5C 208.138,222.498 200.138,221.831 192.5,220.5 Z"/></g>
<g><path style="opacity:1" fill="#fee175" d="M 107.5,225.5 C 156.997,226.499 206.664,226.832 256.5,226.5C 256.5,226.833 256.5,227.167 256.5,227.5C 206.5,227.5 156.5,227.5 106.5,227.5C 106.328,226.508 106.662,225.842 107.5,225.5 Z"/></g>
<g><path style="opacity:1" fill="#a8c35b" d="M 104.5,226.5 C 104.842,227.338 105.508,227.672 106.5,227.5C 156.5,227.5 206.5,227.5 256.5,227.5C 257.492,227.672 258.158,227.338 258.5,226.5C 259.289,226.783 259.956,227.283 260.5,228C 207.833,228.667 155.167,228.667 102.5,228C 103.044,227.283 103.711,226.783 104.5,226.5 Z"/></g>
<g><path style="opacity:1" fill="#e7d256" d="M 216.5,347.5 C 216.167,347.5 215.833,347.5 215.5,347.5C 210.588,326.449 212.588,305.949 221.5,286C 219.597,283.595 217.264,281.761 214.5,280.5C 213.369,283.255 211.702,285.589 209.5,287.5C 206.923,286.057 204.59,284.39 202.5,282.5C 204.928,283.212 207.261,284.212 209.5,285.5C 210.934,282.953 212.6,280.619 214.5,278.5C 217.786,280.451 220.786,282.785 223.5,285.5C 214.375,305.364 212.041,326.03 216.5,347.5 Z"/></g>
<g><path style="opacity:1" fill="#fdfdfb" d="M 200.5,280.5 C 200.5,281.833 201.167,282.5 202.5,282.5C 204.59,284.39 206.923,286.057 209.5,287.5C 211.702,285.589 213.369,283.255 214.5,280.5C 217.264,281.761 219.597,283.595 221.5,286C 212.588,305.949 210.588,326.449 215.5,347.5C 216.057,355.565 218.391,363.065 222.5,370C 218.129,370.828 213.795,370.661 209.5,369.5C 195.806,340.792 192.806,311.125 200.5,280.5 Z"/></g>
<g><path style="opacity:1" fill="#f1d455" d="M 202.5,282.5 C 201.167,282.5 200.5,281.833 200.5,280.5C 192.806,311.125 195.806,340.792 209.5,369.5C 213.795,370.661 218.129,370.828 222.5,370C 218.391,363.065 216.057,355.565 215.5,347.5C 215.833,347.5 216.167,347.5 216.5,347.5C 216.5,348.5 216.5,349.5 216.5,350.5C 230.434,351.432 238.767,358.765 241.5,372.5C 240.724,378.764 237.724,383.597 232.5,387C 220.06,393.868 206.727,397.368 192.5,397.5C 190.585,397.784 188.919,397.451 187.5,396.5C 199.841,396.248 211.841,394.082 223.5,390C 228.081,388.129 232.248,385.629 236,382.5C 238.257,379.562 239.424,376.229 239.5,372.5C 198.167,372.5 156.833,372.5 115.5,372.5C 114.566,371.432 114.232,370.099 114.5,368.5C 118.095,357.233 125.761,351.233 137.5,350.5C 143.098,328.105 141.098,306.439 131.5,285.5C 134.214,282.785 137.214,280.451 140.5,278.5C 142.4,280.619 144.066,282.953 145.5,285.5C 147.799,284.365 149.966,283.032 152,281.5C 151.661,278.953 150.827,276.453 149.5,274C 151.075,272.88 152.075,271.38 152.5,269.5C 151.307,266.281 149.974,263.114 148.5,260C 151.41,257.519 154.743,255.686 158.5,254.5C 160.718,256.651 162.052,259.318 162.5,262.5C 164.045,263.452 165.712,263.785 167.5,263.5C 167.5,259.5 167.5,255.5 167.5,251.5C 174.508,251.334 181.508,251.5 188.5,252C 188.959,255.727 188.959,259.561 188.5,263.5C 190.792,263.756 192.959,263.423 195,262.5C 195.822,259.883 196.322,257.216 196.5,254.5C 199.237,255.031 201.904,255.864 204.5,257C 206.18,257.347 207.18,258.347 207.5,260C 205.696,263.775 204.029,267.608 202.5,271.5C 203.5,272.167 204.5,272.833 205.5,273.5C 204.199,276.427 203.199,279.427 202.5,282.5 Z"/></g>
<g><path style="opacity:1" fill="#fdfdf9" d="M 217.5,351.5 C 229.341,352.681 236.341,359.014 238.5,370.5C 233.456,370.827 228.456,370.494 223.5,369.5C 220.896,363.687 218.896,357.687 217.5,351.5 Z"/></g>
<g><path style="opacity:1" fill="#fdfdfa" d="M 130.5,352.5 C 132.5,352.5 134.5,352.5 136.5,352.5C 135.197,358.576 133.197,364.409 130.5,370C 125.511,370.499 120.511,370.666 115.5,370.5C 117.606,362.063 122.606,356.063 130.5,352.5 Z"/></g>
<g><path style="opacity:1" fill="#12afed" d="M 184.5,327.5 C 185.467,342.118 185.8,356.785 185.5,371.5C 180.637,371.819 175.97,371.486 171.5,370.5C 171.333,356.496 171.5,342.496 172,328.5C 175.981,326.233 180.148,325.899 184.5,327.5 Z"/></g>
<g><path style="opacity:1" fill="#fcfae8" d="M 200.5,280.5 C 200.39,277.941 201.056,275.608 202.5,273.5C 203.095,276.066 202.428,278.399 200.5,280.5 Z"/></g>
<g><path style="opacity:1" fill="#fdfdfb" d="M 151.5,273.5 C 152.5,273.5 153.5,273.5 154.5,273.5C 163.865,304.547 162.031,334.881 149,364.5C 147.833,366.167 146.667,367.833 145.5,369.5C 141.167,370.833 136.833,370.833 132.5,369.5C 145.23,341.929 145.563,314.262 133.5,286.5C 135.234,283.8 137.568,281.8 140.5,280.5C 141.73,283.049 143.23,285.383 145,287.5C 148.403,285.881 151.57,283.881 154.5,281.5C 152.924,279.021 151.924,276.354 151.5,273.5 Z"/></g>
<g><path style="opacity:1" fill="#fdfdfb" d="M 184.5,327.5 C 184.389,326.883 184.056,326.383 183.5,326C 180.167,325.333 176.833,325.333 173.5,326C 171.574,326.422 170.574,327.589 170.5,329.5C 169.504,342.99 169.171,356.656 169.5,370.5C 162.137,370.831 154.803,370.497 147.5,369.5C 154.75,357.848 159.25,345.181 161,331.5C 163.908,306.984 160.408,283.484 150.5,261C 152.947,258.443 155.947,256.943 159.5,256.5C 159.506,259.85 160.506,262.85 162.5,265.5C 164.747,264.626 167.08,264.292 169.5,264.5C 169.577,260.785 169.244,257.119 168.5,253.5C 174.826,252.221 181.159,252.221 187.5,253.5C 187.448,257.198 187.114,260.865 186.5,264.5C 189.493,265.135 192.493,265.301 195.5,265C 196.482,262.262 197.148,259.428 197.5,256.5C 200.968,256.73 203.635,258.23 205.5,261C 196.239,280.489 192.739,300.989 195,322.5C 196.446,338.903 200.613,354.57 207.5,369.5C 200.866,370.497 194.2,370.83 187.5,370.5C 187.667,356.829 187.5,343.163 187,329.5C 186.583,328.244 185.75,327.577 184.5,327.5 Z"/></g>
<g><path style="opacity:1" fill="#bac457" d="M 184.5,327.5 C 180.148,325.899 175.981,326.233 172,328.5C 171.5,342.496 171.333,356.496 171.5,370.5C 170.504,357.01 170.171,343.344 170.5,329.5C 170.574,327.589 171.574,326.422 173.5,326C 176.833,325.333 180.167,325.333 183.5,326C 184.056,326.383 184.389,326.883 184.5,327.5 Z"/></g>
<g><path style="opacity:1" fill="#e7d258" d="M 183.5,282.5 C 186.947,282.814 190.28,283.648 193.5,285C 194.642,289.538 194.309,294.038 192.5,298.5C 188.575,298.998 184.575,298.998 180.5,298.5C 181.5,293.167 182.5,287.833 183.5,282.5 Z"/></g>
<g><path style="opacity:1" fill="#1fafea" d="M 184.5,284.5 C 187.545,284.342 190.379,285.009 193,286.5C 192.731,290.126 192.231,293.793 191.5,297.5C 188.193,297.937 185.193,297.27 182.5,295.5C 183.681,291.928 184.348,288.262 184.5,284.5 Z"/></g>
<g><path style="opacity:1" fill="#e5d25a" d="M 168.5,282.5 C 170.144,282.286 171.644,282.62 173,283.5C 174.673,288.363 175.506,293.363 175.5,298.5C 171.466,298.505 167.466,298.838 163.5,299.5C 163.625,295.209 162.958,291.043 161.5,287C 161.645,286.228 161.978,285.561 162.5,285C 164.723,284.434 166.723,283.6 168.5,282.5 Z"/></g>
<g><path style="opacity:1" fill="#20afea" d="M 167.5,284.5 C 169.167,284.5 170.833,284.5 172.5,284.5C 172.646,288.519 172.979,292.519 173.5,296.5C 170.583,297.291 167.75,297.291 165,296.5C 164.219,293.166 163.886,289.833 164,286.5C 165.302,285.915 166.469,285.249 167.5,284.5 Z"/></g>
<g><path style="opacity:1" fill="#fdfcf2" d="M 115.5,372.5 C 156.833,372.5 198.167,372.5 239.5,372.5C 239.424,376.229 238.257,379.562 236,382.5C 232.248,385.629 228.081,388.129 223.5,390C 211.841,394.082 199.841,396.248 187.5,396.5C 170.262,397.445 153.262,395.945 136.5,392C 131.295,390.046 126.295,387.713 121.5,385C 116.937,382.041 114.937,377.874 115.5,372.5 Z"/></g>
<g><path style="opacity:1" fill="#f7d758" d="M 217.5,374.5 C 223.645,373.51 229.978,373.177 236.5,373.5C 236.032,378.769 233.366,382.436 228.5,384.5C 224.813,381.145 221.147,377.811 217.5,374.5 Z"/></g>
<g><path style="opacity:1" fill="#f8d75e" d="M 159.5,374.5 C 163.981,373.352 168.648,373.185 173.5,374C 180.136,379.634 186.469,385.634 192.5,392C 187.833,392.667 183.167,392.667 178.5,392C 171.996,386.329 165.663,380.495 159.5,374.5 Z"/></g>
<g><path style="opacity:1" fill="#f8d85f" d="M 178.5,374.5 C 182.981,373.352 187.648,373.185 192.5,374C 198.5,379.333 204.5,384.667 210.5,390C 206.405,392.22 202.072,392.887 197.5,392C 190.996,386.329 184.663,380.495 178.5,374.5 Z"/></g>
<g><path style="opacity:1" fill="#f9d962" d="M 198.5,374.5 C 202.981,373.352 207.648,373.185 212.5,374C 216.613,377.736 220.613,381.569 224.5,385.5C 221.662,387.633 218.495,388.966 215,389.5C 209.33,384.663 203.83,379.663 198.5,374.5 Z"/></g>
<g><path style="opacity:1" fill="#f8d657" d="M 140.5,374.5 C 144.981,373.352 149.648,373.185 154.5,374C 160.375,380.042 166.375,385.876 172.5,391.5C 168.205,392.661 163.871,392.828 159.5,392C 152.996,386.329 146.663,380.495 140.5,374.5 Z"/></g>
<g><path style="opacity:1" fill="#fdfdf9" d="M 144.5,376.5 C 147.64,375.359 150.973,375.192 154.5,376C 159.167,380.667 163.833,385.333 168.5,390C 165.5,390.667 162.5,390.667 159.5,390C 154.468,385.493 149.468,380.993 144.5,376.5 Z"/></g>
<g><path style="opacity:1" fill="#fdfdfa" d="M 163.5,376.5 C 166.64,375.359 169.973,375.192 173.5,376C 178.015,380.682 182.681,385.182 187.5,389.5C 184.554,390.655 181.554,390.821 178.5,390C 173.928,384.922 168.928,380.422 163.5,376.5 Z"/></g>
<g><path style="opacity:1" fill="#fdfcf7" d="M 182.5,376.5 C 185.64,375.359 188.973,375.192 192.5,376C 197.675,380.343 202.675,384.843 207.5,389.5C 204.216,390.657 200.882,390.824 197.5,390C 192.846,385.024 187.846,380.524 182.5,376.5 Z"/></g>
<g><path style="opacity:1" fill="#fdfdf9" d="M 202.5,376.5 C 205.64,375.359 208.973,375.192 212.5,376C 215.683,379.015 218.683,382.182 221.5,385.5C 219.378,387.115 217.045,387.615 214.5,387C 210.924,382.918 206.924,379.418 202.5,376.5 Z"/></g>
<g><path style="opacity:1" fill="#fdfcf5" d="M 221.5,376.5 C 225.683,375.189 230.016,375.189 234.5,376.5C 233.386,379.404 231.386,381.404 228.5,382.5C 226.147,380.477 223.814,378.477 221.5,376.5 Z"/></g>
<g><path style="opacity:1" fill="#dbd05f" d="M 114.5,368.5 C 114.232,370.099 114.566,371.432 115.5,372.5C 114.937,377.874 116.937,382.041 121.5,385C 126.295,387.713 131.295,390.046 136.5,392C 153.262,395.945 170.262,397.445 187.5,396.5C 188.919,397.451 190.585,397.784 192.5,397.5C 171.111,400.373 150.111,398.206 129.5,391C 120.331,388.007 114.998,381.841 113.5,372.5C 113.511,370.955 113.844,369.622 114.5,368.5 Z"/></g>
<g><path style="opacity:1" fill="#f7d657" d="M 118.5,373.5 C 124.176,373.334 129.843,373.501 135.5,374C 141.802,379.301 147.802,384.968 153.5,391C 141.264,391.699 130.431,388.199 121,380.5C 119.589,378.35 118.755,376.016 118.5,373.5 Z"/></g>
<g><path style="opacity:1" fill="#fdfdf8" d="M 120.5,375.5 C 125.511,375.334 130.511,375.501 135.5,376C 140.167,380.333 144.833,384.667 149.5,389C 141.344,389.044 133.677,387.044 126.5,383C 123.882,380.894 121.882,378.394 120.5,375.5 Z"/></g>
</svg>
